<svg xmlns="http://www.w3.org/2000/svg" viewBox="0 0 960 288" width="960" height="288">
	<style>
		tspan { white-space:pre }
	</style>
	<path id="极客学舍 " fill="white"  d="M189.01 161.03L186.82 161.47Q185.07 164.31 185.51 167.38Q185.95 170.44 186.38 173.72Q186.82 175.25 187.91 175.47Q189.01 175.47 190.32 174.16Q196.23 168.03 196.45 164.97Q196.88 161.69 189.01 161.03ZM177.63 157.97Q175.45 159.5 175.45 161.03Q175.45 162.56 177.63 163.22Q178.95 163 178.95 161.47Q179.16 159.94 177.63 157.97ZM161.88 157.09Q160.13 156.66 158.82 157.53Q157.73 158.41 157.51 160.16Q157.07 162.34 156.63 164.53Q156.2 166.72 155.76 168.91Q155.1 169.78 155.54 170.88Q155.98 171.97 157.51 170.66Q160.13 167.16 162.76 163.22Q165.6 159.28 161.88 157.09ZM167.13 149.66L165.82 149.66Q163.85 150.31 164.07 152.06Q164.51 153.81 166.26 153.59Q166.91 153.38 167.35 151.84Q167.79 150.31 167.13 149.66ZM210.45 124.72Q209.79 124.28 209.13 124.72Q208.48 125.16 207.82 125.59Q201.91 128.66 197.54 133.03Q193.16 137.41 188.57 143.53Q187.26 144.63 187.7 145.72Q188.13 146.81 189.88 147.03L206.07 146.16Q209.13 142.44 210.88 135.44Q212.85 128.22 210.45 124.72ZM125.13 103.28Q126.66 95.41 127.76 87.97Q129.07 80.31 127.76 72.22Q130.38 69.59 130.38 69.16Q130.6 68.5 131.26 66.09Q139.35 63.03 141.98 67.84Q144.82 72.44 143.51 79.22Q141.1 82.72 139.57 85.34Q138.26 87.97 137.82 91.91Q137.38 96.28 139.57 97.81Q141.76 99.34 145.7 100.22Q152.04 101.09 154.23 104.81Q156.63 108.31 150.95 113.78Q146.57 118.16 141.98 119.91Q137.38 121.66 133.88 126.03Q132.79 129.97 133.01 133.91Q133.23 137.84 133.45 142.22Q133.23 143.09 133.66 143.75Q134.32 144.41 135.63 143.53Q137.16 141.56 138.26 139.59Q139.57 137.63 141.76 136.53Q142.85 136.97 143.07 138.06Q143.51 138.94 144.38 140.03Q146.57 141.13 148.76 140.91Q150.95 140.69 153.13 140.47Q155.76 141.13 157.51 141.13Q159.26 141.13 162.32 139.59Q165.82 137.84 169.32 137.84Q173.04 137.84 176.76 141.34Q177.85 142.22 178.51 141.56Q179.16 140.91 179.38 139.59Q179.38 137.84 178.73 135.88Q178.29 133.69 177.2 131.72Q170.63 126.47 173.7 119.91Q176.98 113.34 182.01 107.22Q182.88 105.25 182.45 104.59Q182.01 103.72 180.26 103.28Q174.13 103.5 170.41 102.41Q166.91 101.31 161.45 94.97Q160.13 93.22 160.57 92.13Q161.01 91.03 162.76 90.59Q169.32 87.75 175.01 86.44Q180.91 85.13 187.7 83.16L192.95 79.66Q198.41 78.56 204.32 78.78Q210.45 79 215.7 80.53Q221.16 83.16 220.51 87.53Q220.07 91.69 215.26 94.97Q212.41 95.84 209.79 96.72Q207.16 97.59 203.88 99.78L189.88 113.34Q184.41 117.94 184.63 121.88Q184.85 125.81 185.51 130.84Q185.95 133.91 187.26 133.47Q188.57 132.81 190.76 131.72Q194.48 128.22 197.32 125.16Q200.38 122.09 203.88 119.47Q209.79 114.22 216.79 114Q223.79 113.56 227.95 119.91L227.95 121.22L219.2 146.16Q218.1 148.56 218.98 149.88Q220.07 150.97 222.26 151.84Q226.63 153.59 231.01 156.88Q235.6 160.16 238.88 164.97Q240.85 167.38 239.1 169.13Q237.57 170.88 234.95 171.53Q226.85 169.56 219.63 171.53Q212.63 173.28 204.32 175.91Q198.85 178.53 195.79 181.59Q192.95 184.44 185.51 187.72Q196.01 187.06 201.7 185.97Q207.38 184.66 216.13 185.97Q219.2 185.09 221.38 185.31Q223.57 185.53 227.07 187.72Q231.66 189.69 235.6 191.66Q239.54 193.63 242.82 198.66Q243.7 201.72 242.82 203.25Q241.95 204.78 238.88 205.22Q232.1 206.75 225.54 205.88Q219.2 205 212.2 204.34Q201.7 206.09 192.07 208.72Q182.66 211.13 171.95 214.84Q167.79 215.06 164.29 215.5Q160.79 215.72 156.63 217.03Q152.04 217.47 148.1 215.28Q144.16 212.88 143.51 207.84Q144.16 205 144.6 203.69Q145.26 202.16 145.26 199.53Q145.04 196.69 147.01 196.03Q149.2 195.38 152.7 196.03Q158.82 198.88 164.51 195.38Q170.41 191.88 178.07 186.41Q179.6 184.66 179.16 182.91Q178.73 180.94 177.63 179.41L173.7 170.66Q171.73 167.16 170.2 167.81Q168.88 168.47 167.13 171.53Q164.51 177.44 161.66 181.16Q159.04 184.88 152.26 186.41Q144.82 184.22 140.45 178.09Q136.29 171.97 134.76 165.84Q133.88 162.13 132.35 162.78Q131.04 163.22 129.95 166.28Q129.51 172.19 129.51 178.09Q129.51 183.78 130.82 189.91Q131.7 197.13 131.7 204.13Q131.7 211.13 131.7 219.22Q131.04 222.94 128.85 223.59Q126.88 224.03 124.26 220.97L123.38 219.66Q121.41 215.06 120.54 210.03Q119.88 204.78 120.32 200.41Q119.23 197.13 118.57 194.72Q117.91 192.09 119.01 188.59Q119.01 186.41 118.13 185.97Q117.26 185.53 115.51 187.28L103.26 196.91Q94.73 201.94 90.57 197.56Q86.41 192.97 86.2 185.09Q84.88 180.94 84.66 179.19Q84.66 177.22 88.82 172.84Q89.26 171.53 90.13 170.44Q91.01 169.34 92.32 168.47Q98.66 160.38 103.48 153.16Q108.29 145.72 113.32 137.41Q113.76 136.09 113.54 135.22Q113.54 134.34 112.01 133.91Q107.85 135.22 104.35 136.53Q101.07 137.84 97.13 139.16Q90.79 141.34 87.07 140.03Q83.57 138.5 79.2 131.28Q77.88 126.91 79.41 122.97Q80.95 118.81 84.01 114.66Q86.2 114.22 89.26 114Q92.32 113.56 95.38 113.78Q97.13 113.78 98.45 114Q99.98 114 101.95 113.78Q107.41 112.47 113.54 110.06Q119.88 107.66 125.13 103.28ZM396.82 182.03L395.07 183.34Q390.48 184.66 385.88 186.19Q381.51 187.72 377.13 191.66Q374.29 193.19 371.45 194.94Q368.82 196.47 367.07 199.09L367.07 213.09Q367.29 213.75 367.51 214.63Q367.95 215.5 369.26 214.41Q371.66 210.47 374.51 210.47Q377.35 210.47 380.63 210.03Q387.2 206.31 393.98 196.25Q400.76 186.19 396.82 182.03ZM389.82 169.34Q386.32 166.5 381.95 163.22Q377.79 159.94 374.51 161.03Q369.91 164.53 365.76 168.69Q361.82 172.63 358.76 177.22Q357.45 178.53 358.1 179.41Q358.98 180.06 360.51 179.84Q368.16 179.63 374.29 177.22Q380.63 174.59 388.51 172.41Q389.16 171.75 389.6 171.31Q390.04 170.66 389.82 169.34ZM385.45 120.34Q380.2 121.22 376.48 125.38Q372.98 129.31 369.7 133.91Q368.6 136.75 371.23 138.28Q374.07 139.81 376.7 138.28Q381.73 133.69 386.32 127.34Q390.91 120.78 385.45 120.34ZM357.45 66.97Q354.16 64.56 352.85 62.16Q351.76 59.53 355.26 56.47Q365.76 51.88 376.7 56.47Q387.63 61.06 390.26 74.41Q390.26 77.03 391.35 77.91Q392.45 78.56 395.07 77.91Q403.6 75.94 411.7 75.72Q419.79 75.28 428.76 75.72L435.76 79.22Q441.66 84.91 441.01 91.25Q440.57 97.59 432.7 98.91Q426.13 101.09 419.79 101.75Q413.66 102.19 406.88 101.53Q403.6 100.66 404.04 99.13Q404.48 97.59 407.32 96.28Q409.73 95.19 413.23 92.78Q416.73 90.38 416.51 87.09Q414.32 83.16 410.6 83.38Q407.1 83.59 403.82 84.91Q400.1 87.97 397.48 89.06Q395.07 89.94 391.13 90.16Q389.38 90.59 387.41 91.69Q385.66 92.78 384.13 94.53L360.51 104.59Q359.63 104.81 358.54 105.91Q357.45 107 357.45 108.09Q357.88 109.19 359.2 109.63Q360.73 110.06 362.26 111.16Q365.1 113.78 366.63 115.09Q368.38 116.41 371.88 115.09Q376.04 113.34 379.54 112.25Q383.26 111.16 388.51 108.09Q392.88 106.13 397.04 107.66Q401.2 108.97 406.45 110.28Q409.73 112.47 410.38 116.84Q411.04 121 407.76 124.28Q402.29 128.22 399.01 133.69Q395.73 139.16 390.7 144.41Q389.38 145.72 389.6 146.81Q390.04 147.91 391.57 148.78Q403.16 154.47 413.66 158.63Q424.38 162.56 436.63 166.72Q442.54 168.91 447.57 170.22Q452.6 171.31 459.38 171.53Q463.98 171.09 467.26 174.38Q470.54 177.66 474.7 181.16Q476.66 183.34 475.13 185.53Q473.82 187.72 471.63 189.03Q459.16 189.91 448.01 191Q436.85 192.09 424.82 189.47Q422.85 188.38 421.98 189.47Q421.1 190.56 421.32 192.09Q420.66 194.5 419.57 195.81Q418.7 197.13 416.07 199.09Q413.45 201.28 413.01 203.03Q412.57 204.78 413.88 207.84Q416.29 212 415.63 214.63Q415.2 217.25 416.07 221.84Q416.29 224.25 414.54 225.56Q413.01 226.66 410.82 227.09L396.38 231.03Q390.48 233.44 386.98 234.31Q383.7 234.97 378.01 234.09Q374.29 234.09 372.54 231.03Q371.01 227.97 370.57 225.34Q369.26 223.59 368.6 223.16Q367.95 222.72 367.07 224.91Q364.88 230.38 359.85 231.47Q355.04 232.56 351.76 231.03Q342.57 222.94 339.95 216.81Q337.32 210.69 336.88 202.59Q336.66 199.97 335.79 199.31Q334.91 198.66 332.07 199.97Q327.04 203.69 322.45 207.63Q318.07 211.56 312.82 213.53Q309.98 215.5 306.48 217.03Q303.2 218.34 300.57 217.03Q296.41 213.09 297.07 207.41Q297.73 201.72 301.88 196.91Q304.51 194.5 306.04 192.31Q307.57 189.91 309.76 187.72Q311.95 185.75 313.7 185.75Q315.66 185.75 316.32 188.16Q317.63 190.34 318.73 190.56Q320.04 190.78 322.01 189.91L330.76 183.34Q339.51 174.81 347.6 167.59Q355.91 160.16 363.13 151.41Q358.32 145.28 354.82 147.47Q351.32 149.66 345.63 151.84Q343.23 153.16 340.82 152.28Q338.41 151.41 337.76 148.78Q335.13 143.97 335.35 140.25Q335.79 136.31 338.2 131.72Q338.85 128 339.51 127.13Q340.38 126.03 344.32 123.84Q347.38 121 349.57 118.16Q351.98 115.31 353.95 112.47Q354.6 110.28 353.73 109.41Q353.07 108.53 350.88 109.41Q346.29 110.5 341.7 112.69Q337.32 114.66 332.95 117.28Q329.23 120.56 326.82 124.72Q324.63 128.88 323.32 133.03Q320.91 136.09 318.95 138.72Q317.2 141.34 316.32 144.84Q313.91 148.34 311.73 148.78Q309.76 149.22 306.7 145.28Q301.01 139.59 298.6 133.69Q296.41 127.78 293.57 121.66Q293.79 119.47 295.1 117.06Q296.41 114.66 297.51 112.47Q299.04 107.66 301.23 103.28Q303.63 98.91 308.45 93.66Q311.95 87.75 317.41 90.38Q322.88 92.78 324.63 97.59Q325.29 100.44 326.6 101.31Q327.91 101.97 330.76 101.09Q341.48 98.03 351.32 94.75Q361.38 91.47 372.32 86.66Q373.2 86.22 375.16 85.13Q377.13 84.03 376.7 83.16Q371.01 83.16 363.13 84.47Q355.48 85.78 351.76 80.09Q351.98 78.56 353.73 77.47Q355.48 76.16 357.45 74.41Q359.63 72 360.07 70.47Q360.51 68.72 357.45 66.97ZM621.7 196.91L620.82 196.91Q617.1 198.22 613.82 199.09Q610.76 199.75 607.26 201.28Q601.79 203.03 597.2 205.22Q592.6 207.19 587.13 208.72Q585.6 209.38 584.29 210.47Q583.2 211.56 583.2 213.53Q584.29 215.28 586.26 216.59Q588.45 217.91 590.2 218.78Q598.07 223.38 605.07 224.25Q612.29 225.13 620.38 217.03Q624.32 212.88 625.63 205Q626.95 197.13 621.7 196.91ZM564.82 144.41L559.57 146.16Q558.04 147.47 558.48 148.56Q559.13 149.66 560.88 149.22Q562.63 148.13 565.7 147.03Q568.98 145.72 564.82 144.41ZM588.88 119.47L588.01 116.84Q586.7 115.75 586.26 116.84Q585.82 117.94 585.38 118.59Q584.95 121 584.07 123.19Q583.41 125.38 583.63 127.78Q582.98 129.09 580.57 130.63Q578.38 131.94 577.07 133.03Q575.32 134.56 575.32 135.44Q575.32 136.09 577.07 136.97Q584.29 137.63 591.07 136.31Q597.85 135 605.95 130.41Q607.91 128.44 607.48 127.78Q607.26 126.91 605.07 126.91L602.01 124.72Q601.13 123.19 600.7 123.63Q600.26 123.84 598.95 125.16Q595.01 129.97 591.95 126.91Q589.1 123.84 588.88 119.47ZM614.7 112.03Q615.79 116.19 618.2 113.34Q620.6 110.28 618.63 109.41Q616.66 108.31 615.79 109.41Q615.13 110.28 614.7 112.03ZM605.07 106.34L609.01 102.84Q612.95 99.78 613.6 96.28Q614.26 92.56 610.32 95.41Q608.35 97.81 607.26 100.44Q606.16 103.06 605.07 106.34ZM642.26 91.91Q640.95 91.69 640.51 92.13Q640.07 92.56 639.63 93.22Q638.32 95.41 637.66 97.38Q637.01 99.34 637.01 101.53Q637.01 102.41 637.45 103.28Q637.88 103.94 638.76 103.72Q641.38 101.97 642.48 97.81Q643.79 93.44 642.26 91.91ZM650.57 64.78Q649.48 64.78 648.82 65.22Q648.16 65.44 647.51 66.09Q640.73 72 636.35 78.13Q631.98 84.25 628.7 91.03Q628.26 93.66 629.57 94.31Q630.88 94.75 632.63 91.91Q633.73 88.19 635.91 85.78Q638.32 83.38 641.82 80.53Q647.95 76.81 651.01 77.25Q654.07 77.47 653.2 67.41Q652.98 66.53 652.1 65.88Q651.45 65 650.57 64.78ZM619.51 53.84Q621.26 49.25 624.1 49.47Q627.16 49.47 628.7 54.28Q628.7 57.56 632.2 61.5Q635.7 65.44 639.2 65.22Q642.48 62.16 645.1 59.97Q647.73 57.78 650.57 56.91Q654.07 55.81 656.04 57.34Q658.23 58.88 658.01 62.59Q658.88 67.84 658.45 72.88Q658.23 77.91 656.7 83.59Q655.6 90.38 654.51 97.16Q653.63 103.94 651.45 112.03Q650.79 114 651.66 114.66Q652.54 115.31 654.95 115.09Q661.29 114.88 667.2 114.22Q673.32 113.34 679.45 115.09Q683.82 115.75 687.54 116.84Q691.26 117.94 696.07 121.22Q699.35 124.06 698.26 127.34Q697.16 130.41 693.45 131.28Q684.04 131.72 675.95 134.13Q668.07 136.31 658.01 133.91Q656.7 133.69 656.26 133.03Q656.04 132.16 657.57 131.72Q661.73 130.41 665.23 129.09Q668.73 127.56 673.32 124.72Q675.73 122.97 675.29 121.66Q674.85 120.13 672.45 119.91L646.2 124.72Q644.01 125.81 642.04 127.13Q640.07 128.22 637.88 128.66L634.38 128.22Q625.2 130.84 616.66 135Q608.13 139.16 598.51 144.84Q596.98 145.72 597.2 146.59Q597.41 147.47 598.95 147.91Q604.41 147.47 609.66 144.84Q615.13 142 621.26 138.72Q628.91 133.25 632.85 133.03Q636.79 132.81 644.88 135.22Q646.85 135.88 647.29 138.06Q647.95 140.25 647.07 142.22Q644.01 149 638.1 154.25Q632.41 159.5 626.95 167.16Q625.41 169.78 626.07 171.31Q626.95 172.84 630.01 173.28Q635.7 171.75 640.51 171.75Q645.32 171.53 651.45 173.72L662.38 175.47Q664.57 175.91 664.57 177.44Q664.79 178.97 662.82 180.72Q657.13 184.88 652.54 186.84Q648.16 188.81 642.26 189.91Q639.41 190.34 638.54 191.88Q637.66 193.41 638.32 196.03Q640.51 206.09 640.51 214.41Q640.73 222.5 633.51 233.22L632.63 234.09Q621.91 239.78 610.54 239.13Q599.16 238.47 588.45 230.59Q583.2 227.75 579.48 224.25Q575.76 220.75 571.38 217.03Q568.54 214.41 568.98 211.34Q569.63 208.28 571.82 205.22Q581.23 194.28 591.29 189.25Q601.35 184.22 612.51 178.97Q614.48 178.09 614.7 176.56Q615.13 175.03 613.38 173.28Q609.66 172.19 609.45 169.56Q609.45 166.72 612.51 165.41Q616.45 163.66 618.63 160.16Q621.04 156.66 623.45 153.16Q623.88 151.84 623.66 151.41Q623.45 150.75 622.13 151.41Q617.1 155.13 612.29 157.09Q607.7 158.84 602.45 161.03Q598.29 162.56 594.79 160.16Q591.29 157.75 589.32 153.59Q588.66 150.97 587.13 150.31Q585.82 149.66 584.07 150.97Q576.85 154.91 570.07 158.63Q563.29 162.13 556.07 168.47Q552.79 172.84 551.04 177.22Q549.29 181.38 547.32 185.97Q546.23 189.47 544.04 190.56Q541.85 191.66 539.01 191.66Q535.29 193.63 532.66 193.63Q530.26 193.41 526.32 190.34Q521.73 186.41 520.63 184.22Q519.54 181.81 520.2 177.66Q520.63 174.81 520.2 173.06Q519.76 171.31 518.88 168.91Q518.23 167.38 518.88 165.63Q519.76 163.66 521.51 163.22Q524.57 162.13 525.66 160.38Q526.76 158.41 527.63 156.22Q529.38 151.41 532.66 147.47Q535.95 143.31 541.63 138.72Q545.79 137.41 550.16 136.31Q554.54 135.22 559.13 134.34Q561.54 133.91 561.76 133.25Q562.2 132.38 560.01 129.97L557.82 126.91Q557.16 122.31 556.95 118.16Q556.73 113.78 554.32 109.41Q554.1 107.88 553.88 106.34Q553.88 104.81 554.76 103.28Q557.6 96.5 558.91 90.16Q560.23 83.59 561.32 76.59Q561.98 74.19 563.29 72Q564.82 69.59 567.01 69.16Q571.16 69.38 575.54 72.44Q580.13 75.5 584.07 79.22Q586.26 83.81 586.7 88.63Q587.13 93.44 588.01 98.47Q587.35 99.34 587.35 101.09Q587.57 102.84 589.32 102.41Q590.63 95.84 591.07 89.72Q591.51 83.59 590.63 77.03Q589.76 75.5 589.1 74.41Q588.66 73.31 589.76 73.09Q591.29 73.31 591.29 73.31Q591.51 73.31 591.51 71.78Q591.95 70.69 592.82 69.81Q593.7 68.94 595.01 69.16Q600.7 68.72 603.98 72Q607.26 75.28 605.95 81.41Q605.51 82.72 605.95 83.16Q606.6 83.38 607.7 82.28Q609.88 79.44 612.07 77.91Q614.48 76.16 616.88 73.97Q619.07 68.72 618.85 63.91Q618.63 58.88 619.51 53.84ZM842.2 173.28L843.95 172.84Q854.01 171.75 862.54 174.81Q871.29 177.66 876.32 190.34Q875.23 195.59 872.82 200.41Q870.41 205.22 866.26 210.91Q863.63 213.53 863.63 215.28Q863.85 217.03 866.7 220.09Q867.57 221.84 867.13 223.38Q866.91 224.69 864.51 224.91Q858.38 225.34 853.13 226.88Q848.1 228.41 841.76 230.16Q838.04 230.38 834.98 230.81Q831.91 231.03 828.2 232.78Q822.07 233.66 819.88 229.72Q817.91 225.78 819.45 220.53Q819.66 219 820.1 217.47Q820.76 215.94 822.95 216.16L826.45 216.59Q835.2 212.88 843.29 204.56Q851.38 196.03 854.01 187.28Q854.45 184.88 853.13 183.56Q851.82 182.25 849.63 183.34Q842.41 184.44 835.85 186.84Q829.51 189.03 822.51 192.53Q818.13 194.5 814.85 197.13Q811.79 199.75 809.38 204.34Q809.6 210.25 810.91 215.94Q812.23 221.41 813.32 227.53Q813.76 229.72 812.66 230.59Q811.57 231.47 809.38 231.47Q805.01 230.59 800.63 228.19Q796.48 225.56 792.32 221.41Q783.57 209.16 787.51 195.81Q791.66 182.47 807.2 181.16Q810.04 180.28 812.66 178.53Q815.51 176.78 819.01 175.03Q821.2 173.94 821.2 175.25Q821.2 176.56 819.45 178.53Q818.79 179.41 818.79 180.06Q819.01 180.5 819.88 181.16L842.2 173.28ZM824.7 107.22Q827.1 105.25 829.73 106.56Q832.35 107.88 833.88 110.72L839.13 120.78Q842.85 123.41 845.91 125.59Q848.98 127.78 852.7 131.72Q854.01 133.03 853.13 133.91Q852.48 134.78 851.38 136.53Q848.32 137.84 845.26 139.38Q842.41 140.91 841.76 144.84Q840.88 147.69 841.76 149.22Q842.63 150.53 845.7 150.53L861.45 149.22Q864.29 148.13 865.6 147.69Q866.91 147.25 869.76 148.34Q873.26 148.56 876.76 149Q880.26 149.44 884.2 152.28Q886.16 154.03 885.73 155.56Q885.51 156.88 883.32 157.09Q870.63 158.41 859.26 159.28Q848.1 160.16 835.63 165.84Q832.35 167.16 831.26 166.72Q830.16 166.06 827.32 165.84Q820.1 167.81 813.32 170.44Q806.54 172.84 798.88 175.03Q792.98 177.44 787.51 179.63Q782.26 181.81 776.57 183.34Q770.23 184.44 767.16 180.28Q764.1 175.91 768.7 171.09Q770.66 169.34 771.54 168.03Q772.41 166.5 773.51 164.53Q773.95 163.66 774.6 163.66Q775.48 163.44 776.57 164.09Q781.6 167.16 787.29 165.84Q792.98 164.31 798.88 162.78Q804.35 161.69 807.63 159.72Q810.91 157.75 815.95 152.28Q817.91 149.88 817.48 148.56Q817.04 147.25 814.2 146.16Q810.26 145.72 806.76 144.84Q803.48 143.75 799.32 141.78Q797.57 140.47 797.79 139.38Q798.01 138.28 800.2 137.84L813.76 132.59Q818.35 129.97 818.79 123.19Q819.45 116.19 821.63 110.72Q821.85 109.63 822.51 108.75Q823.16 107.66 824.7 107.22ZM815.07 60.84L819.01 56.47Q822.95 54.94 825.57 56.25Q828.41 57.34 831.7 61.72Q834.32 65.44 837.16 68.72Q840.01 71.78 841.76 75.28Q844.38 79 847.88 82.72Q851.38 86.22 855.32 89.72L861.45 96.72Q867.13 102.19 872.16 105.47Q877.2 108.53 883.32 112.91Q892.73 116.19 901.26 117.94Q910.01 119.69 919.63 126.91Q921.16 129.31 920.95 131.06Q920.73 132.81 917.45 133.03Q909.57 132.59 902.35 132.59Q895.35 132.38 886.82 132.59Q875.01 127.78 864.73 118.16Q854.45 108.31 843.95 96.72Q836.95 87.53 832.13 89.28Q827.54 91.03 819.88 97.16L816.38 102.41Q810.91 108.75 805.66 114.66Q800.41 120.56 793.2 125.16Q783.35 134.13 773.95 143.09Q764.76 151.84 754.26 156.22Q750.98 157.75 749.01 156.88Q747.04 156 745.51 152.72Q743.54 147.25 743.98 142.66Q744.63 138.06 747.26 132.59Q751.85 129.53 754.04 126.03Q756.45 122.53 761.26 120.78L765.2 118.16Q773.51 109.19 781.38 101.31Q789.48 93.22 798.88 84.91Q803.91 78.78 807.41 73.09Q810.91 67.19 815.07 60.84Z" />
</svg>